<?xml version="1.0" encoding="UTF-8"?>
<svg xmlns="http://www.w3.org/2000/svg" xmlns:xlink="http://www.w3.org/1999/xlink" width="60.0679928px" height="67.2946663px" viewBox="0 0 60.0679928 67.2946663" version="1.1">
  <title>Group</title>
  <g id="Full-Website" stroke="none" stroke-width="1" fill="none" fill-rule="evenodd">
    <g id="Book-A-Tour-Overlay" transform="translate(-1265.5233, -75.66)" fill="#000000" fill-rule="nonzero">
      <g id="Book-a-Tour" transform="translate(0, 0)">
        <g id="Book-a-Tour-Content" transform="translate(864, 0)">
          <g id="Logo" transform="translate(350, 24)">
            <g id="Group" transform="translate(51.5233, 51.66)">
              <path d="M54.1837722,11.0608854 C53.1451056,7.56677409 48.5667745,6.27755461 45.4006635,5.8675546 C41.9065524,5.41655457 37.3919964,5.63522311 34.5948854,8.04055666 C32.8227742,9.5575567 32.1986679,12.0175538 31.6884457,14.2087761 C31.1873346,16.3817762 30.9641132,18.6413367 31.1554465,20.8690034 C31.4196687,23.9348925 32.6359995,27.9665552 36.0572217,28.7728885 C36.4398884,28.8639996 36.8316675,28.9050035 37.2188898,28.9050035 C40.6811119,28.9050035 42.9862225,27.6157774 41.9020003,24.9006661 C42.2300003,24.9006661 42.5443325,24.9416681 42.8404436,25.0236681 C42.8404436,25.0282236 42.8541116,25.0282256 42.8632227,25.0327811 C43.7060005,25.31067 44.2708913,25.9393348 44.5806691,26.5042237 C44.6444469,26.6226681 44.7036688,26.7547795 44.7583355,26.8960018 C44.8540022,27.1511129 44.9405566,27.4198901 45.0134455,27.7068901 C45.0407788,27.8298902 45.0681133,27.957444 45.1000022,28.0895552 C45.3961133,29.4972219 45.4097799,31.2693309 44.8722244,33.4969977 C44.8722244,33.5015532 44.8722244,33.5061152 44.8722244,33.5106707 C44.6171133,34.3944486 44.257223,34.9775566 43.8244452,35.3511122 C43.8183715,35.3571859 43.8138162,35.3617413 43.8107791,35.3647783 C43.4053347,35.6791117 42.844998,35.9068908 42.0705536,35.9570019 C42.0705536,35.9615575 42.061443,35.961555 42.0568875,35.961555 L41.9065533,35.961555 C42.7903311,33.1781104 41.1594429,32.0255551 37.2234428,32.3672218 C33.4104429,32.7043329 31.6747793,39.2916691 31.5107793,45.6876694 L31.5107793,45.7468938 C31.4652237,47.1636716 31.5016629,48.7763353 31.6975518,50.5484466 C31.7112185,50.6851133 31.7294435,50.8172266 31.7431101,50.9493377 C31.7886657,51.33656 31.8433351,51.7146716 31.9025574,52.0745605 C31.9071129,52.1155605 31.916221,52.1565555 31.9207765,52.1975555 C30.1441098,52.111 28.4631085,51.8832266 26.8868863,51.5187822 L26.8185558,51.5005561 C26.918778,50.721556 26.9871099,48.8993385 27.0235544,46.658005 C27.0326655,46.3573383 27.0372205,46.0566711 27.0372205,45.7605599 C27.1101094,40.0296708 26.982556,32.3216662 26.6408894,32.0255551 C29.2193337,32.2988884 29.2876671,28.2262232 26.6408894,28.5678899 C27.0007783,28.5086677 27.5793344,19.4340035 26.7411122,13.2384475 L26.7502252,13.2384475 L26.6864408,12.8512225 L26.6773347,12.8011111 C26.6500013,12.5869999 26.6135563,12.3774421 26.5771119,12.1724421 L26.5588858,12.0767794 C26.5042191,11.7442238 26.4404466,11.4298915 26.3721133,11.138336 L26.3721133,11.1292229 C26.353891,11.015334 26.3311091,10.9014426 26.3037758,10.7921093 C26.2718869,10.6599982 26.2399974,10.5324468 26.203553,10.4048912 C26.1853308,10.3320023 26.1671133,10.2636659 26.1443355,10.1953326 C26.1170022,10.0996659 26.0805547,10.003997 26.0486658,9.90833036 C26.0167769,9.8217748 25.9848874,9.73522285 25.948443,9.64866729 C25.9211097,9.5757784 25.8937777,9.50744201 25.8573333,9.43910867 C25.8208888,9.35255311 25.7844444,9.27511172 25.7434444,9.19311171 C25.7024444,9.10655615 25.6568919,9.02455476 25.6113363,8.94255475 C25.5657808,8.8559992 25.5156688,8.76944475 25.4610022,8.68744474 C25.4336688,8.63733363 25.4063299,8.59177918 25.3698855,8.54622363 C25.3152188,8.45055696 25.2468863,8.35944306 25.178553,8.2728875 C24.973553,7.99044304 24.7412241,7.73077775 24.4997797,7.4984444 C22.4406686,5.55322209 19.2335559,5.43933385 17.0742227,7.59866719 C15.7166671,6.37777821 16.4637751,4.14099881 17.889664,3.39388767 C16.3954418,2.71510985 16.4637782,0.41000001 17.4158893,0 C17.8213337,0.815444468 18.973886,2.30966595 21.8256639,2.24133261 L27.4563307,2.17299858 L30.6452196,2.10466455 C39.2369987,2.24133261 45.6588141,2.30966664 49.9106659,2.30966664 C52.625777,2.30966664 53.5095559,1.28922019 54.3250003,0.136664588 C55.8830003,1.22088692 55.6096669,3.3938881 54.3250003,4.20933257 C55.4775558,4.68311036 57.7143321,8.27744077 54.1883322,11.0608854 L54.1837722,11.0608854 Z" id="Vector"></path>
              <path d="M26.7818886,13.233888 L26.7675998,13.233888 C26.7390282,13.1063324 26.7104601,12.9787786 26.6818886,12.851223 L26.7818886,13.233888 Z" id="Vector"></path>
              <path d="M60.0194454,25.9894427 C56.6969236,25.9438863 54.7425886,25.3835526 54.1564405,24.3084415 C54.1427738,24.2811082 54.1291088,24.2537807 54.1154422,24.2218918 C54.0881088,24.3904474 54.0379949,24.5544462 53.9559949,24.7047796 C53.5915505,25.2696685 53.0129971,25.6705538 52.8763304,25.7616649 C52.8611453,25.770776 52.8505168,25.778369 52.8444452,25.784444 C51.9834452,26.2673329 50.8445515,26.4723335 49.9425515,26.2263335 C49.9425515,26.2217779 49.9334409,26.2217804 49.9288853,26.2217804 C49.4414409,26.0441138 49.0952192,25.7753343 48.8902192,25.5794454 C53.7965529,19.1470009 42.3165556,12.0084446 34.0026665,11.2431113 C34.3671109,10.3775557 34.8363332,9.63500267 35.4832221,9.07466932 C35.925111,8.69655821 36.4171052,8.38677459 36.9364385,8.13621902 C41.6696611,9.02455239 44.9360005,10.7875524 46.694445,11.6667746 C46.7308894,11.6849969 46.7627789,11.6986638 46.7946677,11.716886 C47.0862233,11.8672194 47.368663,12.0175527 47.6511075,12.1724416 C47.6693297,12.1815527 47.6921097,12.1952227 47.7103319,12.2043338 C52.457221,14.7691117 56.0469966,17.1607762 59.6094412,15.3339983 C60.0194454,15.8761095 60.6298839,18.9966686 57.7781059,20.0854464 C59.181217,21.6677428 59.9283302,23.6357415 60.0194454,25.9894427 Z" id="Vector"></path>
              <path d="M59.6777753,49.4642176 C56.2656645,47.9062175 52.4435529,50.0427742 47.8151087,52.4298887 C47.8059976,52.4344443 47.8014407,52.4389993 47.7923296,52.4435548 C45.7286629,53.5049993 43.510109,54.6165521 41.0956646,55.4729966 C41.0819979,55.4821077 41.0637754,55.4866671 41.0455532,55.4912227 C38.9909976,56.2201116 36.7952201,56.7576644 34.4399979,56.9262199 C33.9479979,56.9262199 33.4833349,56.9262199 33.041446,56.9171069 C30.2853349,56.8669958 28.3401113,56.6528852 26.1352224,56.2201074 C25.7434446,56.1472185 25.3516691,56.0652191 24.9416691,55.9786635 C22.6775582,55.4183302 20.6457763,54.6347735 18.8372208,53.7282179 C17.8896653,53.2498846 16.769002,52.6212173 15.5663353,51.8057729 C15.4797798,51.7511062 15.3977809,51.6918887 15.3112253,51.6326665 C15.1062254,51.4914443 14.8966695,51.3411104 14.6916695,51.190777 C14.5868918,51.1178882 14.4866634,51.0404412 14.3864412,50.9675523 C13.9263301,50.6213301 13.4616671,50.2523315 12.9878893,49.8514426 C12.9423338,49.8104426 12.8922193,49.7648876 12.8421082,49.7238876 C9.00633057,46.4165541 7.04744373,43.0408855 6.58733265,42.1981077 C6.58733265,42.1889966 6.57366904,42.1753291 6.56911348,42.1616624 C6.54178015,42.1069957 6.5144432,42.0568843 6.48710987,41.9976621 C5.77644326,40.5808844 5.23889077,39.0638846 4.87444633,37.4922179 C4.67855745,37.3236623 4.47355746,37.1141059 4.19111302,36.7724392 C3.63077971,36.0936614 3.53511167,35.9023323 2.80166725,35.0185545 C2.28688949,34.40811 1.92244438,33.9343322 1.36666661,33.42411 C0.879222162,32.9776655 0.432777755,32.6496619 0.113888884,32.4309953 L0,32.3672178 L0.0865566642,32.3125533 C0.405445535,32.0893311 0.847333414,31.765883 1.33477786,31.3194386 C1.89055563,30.8092163 2.26411282,30.3673308 2.77433503,29.7568863 C3.50777945,28.8731085 3.59889085,28.658994 4.19111302,28.0166607 C4.50089079,27.6841051 4.70133467,27.4654401 4.88811244,27.292329 C5.27533466,25.6568846 5.85388904,24.0533278 6.62377792,22.5363278 C6.64200014,22.4998834 6.66022014,22.4679964 6.67844236,22.431552 C7.00644236,21.8438853 7.76266731,20.5819934 9.00177838,19.0331044 C9.03822282,18.9921044 9.07466532,18.9465494 9.10655421,18.9055494 C9.66688753,18.2267716 10.2272197,17.5981099 10.7283308,17.074221 C10.8148864,16.9831099 10.8968877,16.896551 10.9788877,16.814551 C11.0472211,16.7416621 11.1155575,16.6687727 11.1884463,16.6004394 C11.4025575,16.3863282 11.6212227,16.1722155 11.8490005,15.9581043 L11.8808858,15.9262191 C14.6871078,13.2931078 18.6777774,10.5552186 24.0487772,9.0427742 C24.5088883,9.64410757 24.8505572,10.4139993 25.0191127,11.3661104 L25.0327788,11.4298879 C25.0965566,11.7077768 25.1557741,11.9947715 25.2058852,12.2999937 C19.1151077,14.286216 14.3454459,18.7825531 11.8216683,24.9097754 C11.3752238,25.8937754 10.8558897,27.2741074 10.5324453,28.9869963 C10.5324453,28.9915518 10.5324453,29.0006643 10.5324453,29.0097755 C9.78533419,33.0141089 10.6144425,36.2622167 11.0563314,37.8612168 C11.0654425,37.8976612 11.0745525,37.9341081 11.0836636,37.9705526 C11.4025524,39.1094415 11.9127802,40.5899949 12.7692246,42.239106 C12.7702353,42.241132 12.771753,42.2441697 12.7737777,42.2482191 C15.5025552,47.6192192 20.0490002,51.2955537 26.4267777,52.8125537 C26.4859999,52.830776 26.5497749,52.8444385 26.6089971,52.8581051 C28.330997,53.258994 30.1896641,53.5004393 32.1758863,53.5778838 C32.4537752,53.5915504 32.7362224,53.5961074 33.0186668,53.6006629 C33.1963335,53.6052185 33.3785568,53.6006654 33.560779,53.5961099 C42.3757789,53.4184432 53.6826658,45.6011066 48.9631106,39.1504398 C49.1407773,38.9909954 49.3412206,38.863444 49.5598873,38.7632218 C49.5598886,38.7632188 49.5629263,38.7616988 49.5690003,38.7586618 C49.6965559,38.7131062 49.8423303,38.6675518 49.9926636,38.6174407 C49.9972192,38.6174407 50.0063342,38.6174407 50.0108898,38.6174407 C50.3070008,38.5491073 50.6213311,38.5308834 50.94022,38.5445501 C50.98122,38.5491057 51.0222219,38.5491076 51.0632219,38.5536632 C51.4641108,38.5992187 51.8604408,38.6948848 52.1702186,38.7951071 C52.2112186,38.8133293 52.252223,38.8224387 52.2886674,38.8361054 C52.2977786,38.8406609 52.3023311,38.8406629 52.3068866,38.8452184 C52.4389977,38.8953296 52.5711116,38.9545496 52.6941116,39.0137718 C52.6941116,39.0183273 52.7032222,39.0183293 52.7077777,39.0228848 C52.7108157,39.0228861 52.7184087,39.0259238 52.7305569,39.0319979 C52.7366306,39.0350333 52.7411859,39.0365509 52.744223,39.0365509 C53.4867785,39.4192176 54.0562221,39.9795507 54.1883332,40.580884 C54.1928888,40.5672174 54.2020013,40.5489993 54.2111124,40.5353326 C54.7152605,39.5239993 56.6528904,38.9727763 60.024002,38.8816637 C60.0665187,41.3720334 59.3194068,43.3172553 57.7826661,44.7173294 C60.8348881,46.074885 60.0877798,48.5849997 59.6823353,49.4687776 L59.6777753,49.4642176 Z" id="Vector"></path>
              <path d="M42.2709999,64.5476668 L42.2709999,67.2946663 L17.7940025,67.2946663 L17.7940025,64.5476668 C21.7710022,64.5476668 24.0578882,64.3335571 24.9872215,61.7232237 C25.1011104,61.2631126 25.2150018,60.793892 25.3243351,60.3155587 C25.3334462,60.2426698 25.3471093,60.1697784 25.3562204,60.0923339 C25.3653341,60.0923369 25.3714095,60.0938569 25.3744465,60.0968939 C25.5612243,59.276894 25.7343351,58.4341103 25.8937795,57.5639992 C28.2808905,58.0332214 30.280781,58.2336667 33.027781,58.2837778 L33.1826682,58.2837778 C33.4013349,59.3224445 33.5881096,60.1378909 33.7703318,60.7984465 L33.7794449,60.7984465 C33.788556,60.8394465 33.797666,60.8804484 33.8067771,60.9214484 C34.0163326,61.6548929 34.2122218,62.1696715 34.4263329,62.5523382 C34.7087773,62.9851159 35.064111,63.3313351 35.5014443,63.5955573 C35.7519998,63.732224 36.0344415,63.8506682 36.366997,64.0010015 C37.7518858,64.4838904 39.6925556,64.5476668 42.2709999,64.5476668 Z" id="Vector"></path>
            </g>
          </g>
        </g>
      </g>
    </g>
  </g>
</svg>
